<svg width="24" height="24" viewBox="0 0 24 24" fill="none" xmlns="http://www.w3.org/2000/svg">
<g clip-path="url(#clip0_1_14)">
<path d="M23.9765 7.05631C23.9203 5.7811 23.7141 4.9044 23.4187 4.14473C23.1139 3.33836 22.6451 2.61642 22.0308 2.01626C21.4307 1.40677 20.704 0.933166 19.9069 0.63318C19.1429 0.337773 18.2707 0.131556 16.9955 0.075332C15.7108 0.014346 15.3029 0.000244141 12.0445 0.000244141C8.78604 0.000244141 8.37819 0.014346 7.09821 0.0705704C5.823 0.126795 4.9463 0.333195 4.18682 0.628419C3.38026 0.933166 2.65832 1.40201 2.05817 2.01626C1.44867 2.61642 0.975254 3.34312 0.675085 4.14015C0.379679 4.9044 0.173462 5.77634 0.117237 7.05155C0.0562514 8.33628 0.0421495 8.74414 0.0421495 12.0026C0.0421495 15.261 0.0562514 15.6689 0.112476 16.9489C0.1687 18.2241 0.3751 19.1008 0.670507 19.8604C0.975254 20.6668 1.44867 21.3888 2.05817 21.9889C2.65832 22.5984 3.38503 23.072 4.18206 23.372C4.9463 23.6674 5.81824 23.8736 7.09364 23.9298C8.37343 23.9863 8.78146 24.0002 12.0399 24.0002C15.2984 24.0002 15.7062 23.9863 16.9862 23.9298C18.2614 23.8736 19.1381 23.6674 19.8976 23.372C21.5105 22.7484 22.7857 21.4732 23.4093 19.8604C23.7045 19.0962 23.9109 18.2241 23.9672 16.9489C24.0234 15.6689 24.0375 15.261 24.0375 12.0026C24.0375 8.74414 24.0327 8.33628 23.9765 7.05631ZM21.8153 16.8551C21.7636 18.0272 21.5667 18.6601 21.4026 19.0821C20.9994 20.1276 20.1695 20.9575 19.124 21.3607C18.702 21.5248 18.0645 21.7217 16.897 21.7732C15.6311 21.8296 15.2515 21.8435 12.0493 21.8435C8.84703 21.8435 8.46262 21.8296 7.20132 21.7732C6.02922 21.7217 5.39628 21.5248 4.97433 21.3607C4.45402 21.1684 3.98042 20.8637 3.596 20.4652C3.19749 20.076 2.89274 19.6072 2.70044 19.0869C2.53635 18.6649 2.33947 18.0272 2.28801 16.8599C2.2316 15.594 2.21768 15.2142 2.21768 12.0119C2.21768 8.8097 2.2316 8.42529 2.28801 7.16418C2.33947 5.99208 2.53635 5.35914 2.70044 4.93718C2.89274 4.4167 3.19749 3.94327 3.60077 3.55868C3.98976 3.16016 4.4586 2.85542 4.97909 2.6633C5.40104 2.49921 6.03874 2.30233 7.20608 2.25068C8.47196 2.19446 8.85179 2.18036 12.0538 2.18036C15.2608 2.18036 15.6405 2.19446 16.9018 2.25068C18.0739 2.30233 18.7068 2.49921 19.1288 2.6633C19.6491 2.85542 20.1227 3.16016 20.5071 3.55868C20.9056 3.94785 21.2103 4.4167 21.4026 4.93718C21.5667 5.35914 21.7636 5.99665 21.8153 7.16418C21.8715 8.43005 21.8856 8.8097 21.8856 12.0119C21.8856 15.2142 21.8715 15.5892 21.8153 16.8551Z" fill="white"/>
<path d="M12.0445 5.8374C8.6408 5.8374 5.87921 8.59881 5.87921 12.0027C5.87921 15.4065 8.6408 18.1679 12.0445 18.1679C15.4483 18.1679 18.2097 15.4065 18.2097 12.0027C18.2097 8.59881 15.4483 5.8374 12.0445 5.8374ZM12.0445 16.0019C9.83634 16.0019 8.04522 14.211 8.04522 12.0027C8.04522 9.79435 9.83634 8.00341 12.0445 8.00341C14.2528 8.00341 16.0437 9.79435 16.0437 12.0027C16.0437 14.211 14.2528 16.0019 12.0445 16.0019Z" fill="white"/>
<path d="M19.893 5.59336C19.893 6.38819 19.2485 7.03267 18.4535 7.03267C17.6587 7.03267 17.0142 6.38819 17.0142 5.59336C17.0142 4.79834 17.6587 4.15405 18.4535 4.15405C19.2485 4.15405 19.893 4.79834 19.893 5.59336Z" fill="white"/>
</g>
<defs>
<clipPath id="clip0_1_14">
<rect width="24" height="24" fill="white" transform="translate(0 0.000244141)"/>
</clipPath>
</defs>
</svg>
