<svg width="24" height="24" viewBox="0 0 24 24" fill="none" xmlns="http://www.w3.org/2000/svg">
<g clip-path="url(#clip0_1_10)">
<path d="M12.326 0.000244141C5.74699 0.00124414 2.24999 4.21624 2.24999 8.81224C2.24999 10.9432 3.44099 13.6022 5.34799 14.4452C5.89199 14.6902 5.81999 14.3912 6.28799 12.6012C6.32499 12.4522 6.30599 12.3232 6.18599 12.1842C3.45999 9.03124 5.65399 2.54924 11.937 2.54924C21.03 2.54924 19.331 15.1312 13.519 15.1312C12.021 15.1312 10.905 13.9552 11.258 12.5002C11.686 10.7672 12.524 8.90424 12.524 7.65524C12.524 4.50724 7.83399 4.97424 7.83399 9.14524C7.83399 10.4342 8.28999 11.3042 8.28999 11.3042C8.28999 11.3042 6.78099 17.4002 6.50099 18.5392C6.02699 20.4672 6.56499 23.5882 6.61199 23.8572C6.64099 24.0052 6.80699 24.0522 6.89999 23.9302C7.04899 23.7352 8.87299 21.1332 9.38399 19.2522C9.56999 18.5672 10.333 15.7872 10.333 15.7872C10.836 16.6952 12.286 17.4552 13.831 17.4552C18.427 17.4552 21.749 13.4152 21.749 8.40224C21.733 3.59624 17.62 0.000244141 12.326 0.000244141V0.000244141Z" fill="white"/>
</g>
<defs>
<clipPath id="clip0_1_10">
<rect width="24" height="24" fill="white" transform="translate(0 0.000244141)"/>
</clipPath>
</defs>
</svg>
